<?xml version="1.0" standalone="no"?>
<!DOCTYPE svg PUBLIC "-//W3C//DTD SVG 20010904//EN"
 "http://www.w3.org/TR/2001/REC-SVG-20010904/DTD/svg10.dtd">
<svg version="1.0" xmlns="http://www.w3.org/2000/svg"
 width="16.000000pt" height="16.000000pt" viewBox="0 0 16.000000 16.000000"
 preserveAspectRatio="xMidYMid meet">
<metadata>
Created by potrace 1.11, written by Peter Selinger 2001-2013
</metadata>
<g transform="translate(0.000000,16.000000) scale(0.009195,-0.009195)"
fill="#000000" stroke="none">
<path d="M763 1637 c-51 -19 -50 -28 1 -11 58 20 156 15 204 -10 112 -58 170
-204 126 -316 -22 -53 -36 -52 -17 3 31 84 16 181 -35 240 -28 32 -33 17 -6
-19 30 -39 45 -109 34 -157 l-8 -32 -1 38 c-1 51 -22 88 -73 131 -59 50 -103
62 -176 47 -31 -7 -66 -14 -77 -15 -41 -7 -55 -19 -79 -69 -25 -53 -42 -147
-27 -147 6 0 31 -43 31 -54 0 -2 -7 -6 -15 -10 -20 -7 -44 40 -54 112 -8 53
-9 54 -10 16 0 -23 6 -61 14 -84 8 -23 15 -45 15 -47 0 -3 -126 -2 -281 2
l-281 8 12 -24 c7 -13 45 -69 85 -124 39 -56 88 -123 107 -150 19 -28 75 -106
123 -175 122 -172 212 -300 277 -395 41 -60 176 -250 193 -273 1 -1 11 -4 22
-7 16 -3 36 18 93 96 39 55 78 106 87 114 8 8 11 15 6 15 -4 0 1 7 11 15 11 8
17 15 13 15 -4 0 1 9 12 21 10 12 45 59 77 107 32 47 63 90 69 96 6 6 29 36
50 66 63 92 109 154 122 167 6 7 26 35 44 63 18 27 36 50 41 50 4 0 8 4 8 10
0 10 9 22 62 83 15 18 28 35 28 39 0 3 17 28 39 55 40 51 71 104 71 123 0 7
-96 10 -296 10 l-296 0 9 33 c46 180 -85 358 -262 356 -33 0 -74 -6 -92 -12z
m179 -206 c23 -25 28 -41 28 -80 0 -77 -17 -90 -122 -98 l-87 -6 -20 34 c-26
43 -26 75 -1 117 48 78 147 95 202 33z m-616 -211 l-1 -30 -66 0 c-36 0 -69
-3 -72 -6 -4 -4 6 -23 22 -43 58 -75 65 -89 48 -106 -9 -8 -18 -15 -21 -15 -4
0 -139 183 -160 218 -6 9 21 12 122 12 l129 0 -1 -30z m1054 -10 l0 -40 70 0
c39 0 70 -3 70 -6 0 -3 -19 -29 -42 -56 l-42 -51 28 -24 c15 -13 26 -29 23
-36 -5 -12 -110 -162 -144 -205 -16 -21 -25 -23 -81 -20 l-62 3 59 66 60 66
-34 29 c-19 16 -35 32 -35 36 0 4 25 37 56 73 31 36 54 69 51 72 -4 3 -64 6
-134 7 l-128 1 -3 49 c-5 78 -10 76 148 76 l140 0 0 -40z m294 28 c-4 -7 -41
-59 -82 -116 -74 -102 -74 -103 -96 -85 -11 10 -22 18 -24 19 -4 2 82 109 90
112 27 12 -3 22 -74 24 -82 3 -83 3 -86 31 l-3 27 141 0 c110 0 140 -3 134
-12z m-1034 -58 l0 -60 -87 -1 c-49 -1 -105 0 -125 1 -21 1 -38 -3 -38 -9 0
-5 20 -32 44 -58 40 -43 55 -73 33 -65 -5 1 -6 -1 -3 -6 3 -5 -8 -22 -24 -37
-17 -16 -30 -34 -30 -40 0 -6 31 -41 69 -79 l69 -69 -31 -43 c-18 -24 -34 -43
-37 -43 -3 0 -32 39 -65 86 -33 48 -84 122 -114 165 l-54 78 27 29 28 29 -37
49 -37 48 56 3 c59 3 61 5 56 60 -1 22 -1 22 149 22 l151 0 0 -60z m116 33 c1
-106 4 -123 22 -123 9 -1 0 -10 -23 -22 -22 -11 -49 -28 -60 -38 -32 -28 -62
-41 -116 -49 -36 -6 -49 -5 -46 3 3 7 -13 32 -34 56 -21 24 -37 45 -35 48 2 2
48 5 103 7 l98 4 3 70 3 71 42 0 c39 0 42 -2 43 -27z m203 -33 l2 -60 -86 0
-85 0 0 60 0 60 84 0 83 0 2 -60z m101 -15 l0 -74 117 -3 117 -3 -45 -50 -44
-50 -56 6 c-41 4 -69 15 -107 42 -29 20 -62 39 -75 43 l-22 7 23 8 c16 6 23
16 22 31 -1 13 -2 44 -1 71 1 47 1 47 36 47 l35 0 0 -75z m-34 -142 c38 -24
85 -45 104 -48 67 -12 80 -15 80 -23 0 -4 -33 -6 -72 -4 -60 3 -79 8 -108 31
-64 49 -88 61 -138 67 -65 8 -125 -10 -170 -50 -20 -18 -47 -38 -59 -45 -25
-13 -133 -15 -133 -2 0 9 48 21 84 21 12 0 45 16 74 36 85 57 109 65 192 62
69 -3 82 -7 146 -45z m-116 -28 l25 -15 -30 6 c-27 5 -28 4 -10 -7 47 -29 57
-66 25 -87 -18 -11 -20 -10 -20 11 0 50 -58 65 -85 23 -13 -20 -14 -29 -5 -48
11 -22 11 -22 -5 -3 -9 11 -23 20 -33 20 -12 0 -16 7 -14 25 8 73 88 112 152
75z m-405 -84 c-1 -52 -8 -58 -30 -25 -17 27 -17 28 5 46 12 10 23 18 24 18 1
0 1 -18 1 -39z m765 -11 c0 -4 -29 -38 -65 -76 -35 -38 -64 -74 -65 -80 0 -6
9 -23 20 -37 11 -14 20 -27 20 -30 0 -2 -36 -7 -81 -10 -65 -4 -85 -10 -105
-28 l-24 -22 0 35 c0 20 -2 43 -6 51 -3 9 6 19 25 27 17 7 46 29 64 49 19 21
43 37 57 37 14 1 35 2 48 3 33 2 72 44 65 70 -3 11 -2 28 1 37 6 15 8 15 26
-1 11 -10 20 -21 20 -25z m-66 -8 c3 -5 -3 -8 -12 -8 -80 0 -92 -5 -148 -54
-69 -60 -141 -86 -212 -75 -54 8 -89 24 -153 71 -35 25 -57 34 -97 36 -29 2
-51 7 -50 13 5 17 58 17 93 1 18 -9 36 -16 40 -16 3 0 21 -11 38 -24 72 -54
163 -71 231 -42 18 7 53 34 78 60 l46 46 70 0 c39 0 73 -4 76 -8z m-565 -112
c14 -11 45 -30 69 -41 44 -21 46 -26 36 -78 l-7 -32 -23 22 c-20 19 -33 22
-105 20 l-82 -2 32 39 c17 22 31 43 31 48 0 4 -12 20 -26 35 l-26 27 38 -8
c20 -5 49 -18 63 -30z m661 -38 c0 -5 -14 -28 -31 -52 l-31 -43 -28 44 -27 44
56 6 c31 3 57 6 59 7 1 1 2 -2 2 -6z m-514 -82 c-11 -57 -26 -66 -26 -16 0 43
9 66 24 66 10 0 10 -12 2 -50z m162 -2 c-4 -74 -28 -77 -28 -4 0 44 3 56 16
56 12 0 14 -10 12 -52z m-67 10 c0 -18 3 -49 6 -68 9 -62 8 -72 -9 -83 -25
-17 -61 18 -53 52 3 14 6 50 6 79 2 48 4 52 25 52 20 0 24 -5 25 -32z m-176
-54 c14 -15 25 -30 25 -33 0 -4 -16 -22 -35 -41 -48 -47 -44 -84 10 -90 35 -4
43 -1 75 32 l33 32 17 -21 c9 -12 17 -40 18 -62 l2 -41 -88 0 -88 0 -30 43
c-16 23 -56 79 -87 125 l-58 82 91 0 c86 0 92 -2 115 -26z m405 16 c11 -7 11
-10 2 -10 -10 0 -10 -5 2 -22 22 -31 20 -52 -10 -87 -39 -47 -105 -36 -153 25
-17 22 -19 30 -9 41 10 13 17 10 41 -21 43 -53 98 -46 120 16 7 20 -25 51 -46
42 -19 -7 -29 -31 -17 -39 6 -4 10 -1 10 4 0 6 5 11 10 11 14 0 12 -26 -3 -39
-16 -12 -40 3 -50 32 -14 39 62 74 103 47z m113 -2 c-5 -7 -20 -31 -33 -53
l-25 -40 -3 35 c-2 19 -8 39 -13 45 -18 18 -8 25 36 25 35 0 44 -3 38 -12z
m-453 -60 c-1 -17 -30 -51 -63 -72 -39 -26 -34 -3 11 43 39 42 52 49 52 29z
m235 -124 c19 -3 48 -1 65 4 36 13 37 10 8 -28 -21 -29 -24 -30 -109 -30 l-87
0 -4 41 c-2 24 2 49 10 60 13 19 15 19 48 -10 18 -17 49 -33 69 -37z m29 -86
c-19 -31 -166 -223 -172 -225 -4 -1 -38 43 -77 98 -38 55 -75 108 -82 117 -11
16 1 17 164 20 143 3 174 1 167 -10z"/>
<path d="M683 1595 c-12 -9 -32 -30 -43 -48 l-22 -32 22 25 c11 14 33 35 48
47 31 26 27 31 -5 8z"/>
<path d="M596 1475 c-3 -9 -6 -24 -5 -33 0 -9 5 -4 10 12 9 32 6 48 -5 21z"/>
</g>
</svg>
